<svg width="180" height="55" viewBox="0 0 180 55" fill="none" xmlns="http://www.w3.org/2000/svg">
<path d="M19.7025 44.9275C21.1586 43.794 23.1985 43.794 24.6546 44.9275L30.8087 49.7182H13.5483L19.7025 44.9275Z" fill="#FF9D56"/>
<path d="M6.15413 44.9275C7.61025 43.794 9.65015 43.794 11.1063 44.9275L17.2604 49.7182H0L6.15413 44.9275Z" fill="#FF9D56"/>
<path d="M45.4555 44.9275C46.9116 43.794 48.9515 43.794 50.4076 44.9275L56.5618 49.7182H39.3014L45.4555 44.9275Z" fill="#FF9D56"/>
<path d="M31.9072 44.9275C33.3633 43.794 35.4032 43.794 36.8593 44.9275L43.0134 49.7182H25.753L31.9072 44.9275Z" fill="#FF9D56"/>
<path d="M71.2085 44.9275C72.6646 43.794 74.7045 43.794 76.1607 44.9275L82.3148 49.7182H65.0544L71.2085 44.9275Z" fill="#FF9D56"/>
<path d="M57.6602 44.9275C59.1163 43.794 61.1562 43.794 62.6123 44.9275L68.7665 49.7182H51.5061L57.6602 44.9275Z" fill="#FF9D56"/>
<path d="M96.9615 44.9275C98.4177 43.794 100.458 43.794 101.914 44.9275L108.068 49.7182H90.8074L96.9615 44.9275Z" fill="#FF9D56"/>
<path d="M83.4132 44.9275C84.8693 43.794 86.9092 43.794 88.3654 44.9275L94.5195 49.7182H77.2591L83.4132 44.9275Z" fill="#FF9D56"/>
<path d="M122.715 44.9275C124.171 43.794 126.211 43.794 127.667 44.9275L133.821 49.7182H116.56L122.715 44.9275Z" fill="#FF9D56"/>
<path d="M109.166 44.9275C110.622 43.794 112.662 43.794 114.118 44.9275L120.273 49.7182H103.012L109.166 44.9275Z" fill="#FF9D56"/>
<path d="M148.468 44.9275C149.924 43.794 151.964 43.794 153.42 44.9275L159.574 49.7182H142.313L148.468 44.9275Z" fill="#FF9D56"/>
<path d="M134.919 44.9275C136.375 43.794 138.415 43.794 139.871 44.9275L146.026 49.7182H128.765L134.919 44.9275Z" fill="#FF9D56"/>
<path d="M160.672 44.9275C162.128 43.794 164.168 43.794 165.624 44.9275L171.779 49.7182H154.518L160.672 44.9275Z" fill="#FF9D56"/>
<path d="M25.0429 53.0563C26.4991 54.1898 28.539 54.1898 29.9951 53.0563L36.26 48.1794H18.778L25.0429 53.0563Z" fill="#FF9D56"/>
<path d="M11.3207 53.0563C12.7768 54.1898 14.8167 54.1898 16.2728 53.0563L22.5378 48.1794H5.05578L11.3207 53.0563Z" fill="#FF9D56"/>
<path d="M51.1266 53.0563C52.5827 54.1898 54.6226 54.1898 56.0787 53.0563L62.3436 48.1794H44.8616L51.1266 53.0563Z" fill="#FF9D56"/>
<path d="M37.4043 53.0563C38.8604 54.1898 40.9003 54.1898 42.3565 53.0563L48.6214 48.1794H31.1394L37.4043 53.0563Z" fill="#FF9D56"/>
<path d="M77.2102 53.0563C78.6663 54.1898 80.7062 54.1898 82.1623 53.0563L88.4272 48.1794H70.9453L77.2102 53.0563Z" fill="#FF9D56"/>
<path d="M63.4879 53.0563C64.9441 54.1898 66.984 54.1898 68.4401 53.0563L74.705 48.1794H57.223L63.4879 53.0563Z" fill="#FF9D56"/>
<path d="M103.294 53.0563C104.75 54.1898 106.79 54.1898 108.246 53.0563L114.511 48.1794H97.0289L103.294 53.0563Z" fill="#FF9D56"/>
<path d="M89.5715 53.0563C91.0277 54.1898 93.0676 54.1898 94.5237 53.0563L100.789 48.1794H83.3066L89.5715 53.0563Z" fill="#FF9D56"/>
<path d="M129.377 53.0563C130.834 54.1898 132.873 54.1898 134.33 53.0563L140.594 48.1794H123.113L129.377 53.0563Z" fill="#FF9D56"/>
<path d="M115.655 53.0563C117.111 54.1898 119.151 54.1898 120.607 53.0563L126.872 48.1794H109.39L115.655 53.0563Z" fill="#FF9D56"/>
<path d="M155.461 53.0563C156.917 54.1898 158.957 54.1898 160.413 53.0563L166.678 48.1794H149.196L155.461 53.0563Z" fill="#FF9D56"/>
<path d="M141.739 53.0563C143.195 54.1898 145.235 54.1898 146.691 53.0563L152.956 48.1794H135.474L141.739 53.0563Z" fill="#FF9D56"/>
<path d="M167.822 53.0563C169.279 54.1898 171.318 54.1898 172.775 53.0563L179.039 48.1794H161.557L167.822 53.0563Z" fill="#FF9D56"/>
<path d="M19.7192 9.56C22.0872 9.56 24.1192 10.008 25.8152 10.904C27.5112 11.768 28.8232 12.968 29.7512 14.504C31.4792 17.48 32.3432 21.112 32.3432 25.4C32.3432 31.352 31.1592 35.656 28.7912 38.312C27.8632 39.304 26.6312 40.12 25.0952 40.76C23.5592 41.4 21.7672 41.72 19.7192 41.72C15.8472 41.72 12.7112 41.272 10.3112 40.376C10.7592 36.632 10.9832 31.56 10.9832 25.16C10.9832 18.728 10.7112 13.976 10.1672 10.904C12.9192 10.008 16.1032 9.56 19.7192 9.56ZM19.7192 38.312C25.3832 38.312 28.2152 34.008 28.2152 25.4C28.2152 22.936 27.9592 20.776 27.4472 18.92C26.9352 17.064 26.0232 15.512 24.7112 14.264C23.3992 13.016 21.8152 12.392 19.9592 12.392C18.1352 12.392 16.4552 12.696 14.9192 13.304C14.6952 15.864 14.5832 19.784 14.5832 25.064C14.5832 30.312 14.7112 34.392 14.9672 37.304C16.4712 37.976 18.0552 38.312 19.7192 38.312ZM38.4594 34.808L38.5074 30.92C38.5074 26.024 38.2194 22.056 37.6434 19.016C38.3794 18.728 39.1954 18.584 40.0914 18.584C40.9874 18.584 41.8674 18.632 42.7314 18.728C42.2514 23.112 42.0114 26.84 42.0114 29.912C42.0114 32.984 42.2194 35.144 42.6354 36.392C43.0834 37.64 44.0434 38.264 45.5154 38.264C47.0194 38.264 48.7474 37.288 50.6994 35.336C50.7634 34.376 50.7954 32.952 50.7954 31.064C50.7954 25.784 50.5074 21.768 49.9314 19.016C51.1474 18.696 52.1554 18.536 52.9554 18.536C53.7554 18.536 54.4434 18.6 55.0194 18.728C54.5394 23.08 54.2994 27 54.2994 30.488C54.2994 33.944 54.5874 37.4 55.1634 40.856C54.2034 41.144 53.3714 41.288 52.6674 41.288C51.9634 41.288 51.2914 41.256 50.6514 41.192L50.5554 38.84C48.1874 40.76 45.9954 41.72 43.9794 41.72C41.9954 41.72 40.5714 41.16 39.7074 40.04C38.8754 38.888 38.4594 37.144 38.4594 34.808ZM69.6092 18.056C71.6572 18.056 73.4012 18.568 74.8412 19.592C76.3132 20.616 77.0492 22.104 77.0492 24.056C77.0492 24.28 77.0172 24.648 76.9532 25.16C76.1212 25.416 75.4012 25.544 74.7932 25.544C74.1852 25.544 73.5292 25.512 72.8252 25.448C72.8572 25.224 72.8732 24.92 72.8732 24.536C72.8732 23.48 72.5532 22.584 71.9132 21.848C71.3052 21.112 70.4252 20.744 69.2732 20.744C66.2332 20.744 64.7132 23.672 64.7132 29.528C64.7132 35.352 66.3772 38.264 69.7052 38.264C71.3052 38.264 73.2572 37.272 75.5612 35.288C76.4892 36.248 77.0812 37.512 77.3372 39.08C74.6812 40.84 72.0252 41.72 69.3692 41.72C66.1372 41.72 63.8972 40.632 62.6492 38.456C61.4012 36.248 60.7772 33.352 60.7772 29.768C60.7772 26.152 61.4652 23.304 62.8412 21.224C64.2172 19.112 66.4732 18.056 69.6092 18.056ZM82.9862 41.096C83.4662 36.936 83.7062 32.008 83.7062 26.312C83.7062 20.584 83.6582 16.792 83.5622 14.936C83.4662 13.08 83.2262 11.016 82.8422 8.744C83.6742 8.424 84.5062 8.264 85.3382 8.264C86.1702 8.264 87.0342 8.296 87.9302 8.36C87.4502 12.296 87.2102 18.184 87.2102 26.024C87.2102 33.864 87.4982 38.76 88.0742 40.712C87.0182 41.032 86.1702 41.192 85.5302 41.192C84.9222 41.192 84.0742 41.16 82.9862 41.096ZM95.1302 18.584C95.4182 18.52 96.0262 18.488 96.9542 18.488C97.9142 18.488 98.9542 18.744 100.074 19.256C99.6262 20.024 98.3782 21.56 96.3302 23.864C94.2822 26.168 92.8742 27.784 92.1062 28.712C95.7862 33.992 98.7942 37.832 101.13 40.232C99.5302 41.032 97.5942 41.432 95.3222 41.432C94.5542 39.352 93.6742 37.544 92.6822 36.008C91.6902 34.472 90.1222 32.504 87.9782 30.104L88.1222 29.624C89.4022 28.088 90.8262 26.168 92.3942 23.864C93.9942 21.56 94.9062 19.8 95.1302 18.584ZM116.422 9.56C118.79 9.56 120.822 10.008 122.518 10.904C124.214 11.768 125.526 12.968 126.454 14.504C128.182 17.48 129.046 21.112 129.046 25.4C129.046 31.352 127.862 35.656 125.494 38.312C124.566 39.304 123.334 40.12 121.798 40.76C120.262 41.4 118.47 41.72 116.422 41.72C112.55 41.72 109.414 41.272 107.014 40.376C107.462 36.632 107.686 31.56 107.686 25.16C107.686 18.728 107.414 13.976 106.87 10.904C109.622 10.008 112.806 9.56 116.422 9.56ZM116.422 38.312C122.086 38.312 124.918 34.008 124.918 25.4C124.918 22.936 124.662 20.776 124.15 18.92C123.638 17.064 122.726 15.512 121.414 14.264C120.102 13.016 118.518 12.392 116.662 12.392C114.838 12.392 113.158 12.696 111.622 13.304C111.398 15.864 111.286 19.784 111.286 25.064C111.286 30.312 111.414 34.392 111.67 37.304C113.174 37.976 114.758 38.312 116.422 38.312ZM149.851 29.192C147.451 29.96 145.051 30.344 142.651 30.344C140.283 30.344 138.507 30.264 137.323 30.104C137.323 32.984 137.787 35.08 138.715 36.392C139.579 37.64 140.923 38.264 142.747 38.264C144.571 38.264 146.555 37.272 148.699 35.288C149.627 36.248 150.219 37.512 150.475 39.08C147.883 40.84 145.179 41.72 142.363 41.72C139.003 41.72 136.667 40.632 135.355 38.456C134.043 36.248 133.387 33.336 133.387 29.72C133.387 26.104 134.107 23.256 135.547 21.176C137.019 19.096 139.403 18.056 142.699 18.056C145.003 18.056 146.843 18.76 148.219 20.168C149.627 21.544 150.331 23.192 150.331 25.112C150.363 27 150.203 28.36 149.851 29.192ZM142.363 20.744C139.419 20.744 137.755 22.936 137.371 27.32C138.747 27.48 140.299 27.56 142.027 27.56C143.787 27.56 145.163 27.4 146.155 27.08C146.283 25.928 146.347 25.336 146.347 25.304C146.347 24.056 146.027 22.984 145.387 22.088C144.747 21.192 143.739 20.744 142.363 20.744ZM165.315 41C164.483 41.224 163.731 41.336 163.059 41.336C162.419 41.336 161.987 41.32 161.763 41.288C160.931 38.344 159.683 34.712 158.019 30.392C156.387 26.04 154.819 22.344 153.315 19.304C154.595 18.76 155.747 18.488 156.771 18.488C157.827 18.488 158.531 18.504 158.883 18.536C159.203 23.112 160.787 28.824 163.635 35.672H163.827C164.883 33.656 165.907 30.888 166.899 27.368C167.923 23.848 168.499 20.92 168.627 18.584C169.203 18.52 169.635 18.488 169.923 18.488C171.427 18.488 172.675 18.76 173.667 19.304C172.515 21.864 170.979 25.544 169.059 30.344C167.171 35.112 165.923 38.664 165.315 41Z" fill="#2E2E2E"/>
</svg>
