<svg width="180" height="10" viewBox="0 0 180 10" fill="none" xmlns="http://www.w3.org/2000/svg">
<path d="M19.7025 0.927498C21.1586 -0.20602 23.1985 -0.206021 24.6546 0.927496L30.8087 5.71818H13.5483L19.7025 0.927498Z" fill="#FF9D56"/>
<path d="M6.15413 0.927498C7.61025 -0.20602 9.65015 -0.206021 11.1063 0.927496L17.2604 5.71818H0L6.15413 0.927498Z" fill="#FF9D56"/>
<path d="M45.4555 0.927498C46.9116 -0.20602 48.9515 -0.206021 50.4076 0.927496L56.5618 5.71818H39.3014L45.4555 0.927498Z" fill="#FF9D56"/>
<path d="M31.9072 0.927498C33.3633 -0.20602 35.4032 -0.206021 36.8593 0.927496L43.0134 5.71818H25.753L31.9072 0.927498Z" fill="#FF9D56"/>
<path d="M71.2085 0.927498C72.6646 -0.20602 74.7045 -0.206021 76.1607 0.927497L82.3148 5.71818H65.0544L71.2085 0.927498Z" fill="#FF9D56"/>
<path d="M57.6602 0.927498C59.1163 -0.20602 61.1562 -0.206021 62.6123 0.927497L68.7665 5.71818H51.5061L57.6602 0.927498Z" fill="#FF9D56"/>
<path d="M96.9615 0.927498C98.4177 -0.20602 100.458 -0.206021 101.914 0.927497L108.068 5.71818H90.8074L96.9615 0.927498Z" fill="#FF9D56"/>
<path d="M83.4132 0.927498C84.8693 -0.20602 86.9092 -0.206021 88.3654 0.927497L94.5195 5.71818H77.2591L83.4132 0.927498Z" fill="#FF9D56"/>
<path d="M122.715 0.927497C124.171 -0.20602 126.211 -0.206021 127.667 0.927495L133.821 5.71818H116.56L122.715 0.927497Z" fill="#FF9D56"/>
<path d="M109.166 0.927497C110.622 -0.20602 112.662 -0.206021 114.118 0.927495L120.273 5.71818H103.012L109.166 0.927497Z" fill="#FF9D56"/>
<path d="M148.468 0.927497C149.924 -0.20602 151.964 -0.206021 153.42 0.927495L159.574 5.71818H142.313L148.468 0.927497Z" fill="#FF9D56"/>
<path d="M134.919 0.927497C136.375 -0.20602 138.415 -0.206021 139.871 0.927495L146.026 5.71818H128.765L134.919 0.927497Z" fill="#FF9D56"/>
<path d="M160.672 0.927497C162.128 -0.20602 164.168 -0.206021 165.624 0.927495L171.779 5.71818H154.518L160.672 0.927497Z" fill="#FF9D56"/>
<path d="M25.0429 9.05628C26.4991 10.1898 28.539 10.1898 29.9951 9.05628L36.26 4.17935H18.778L25.0429 9.05628Z" fill="#FF9D56"/>
<path d="M11.3207 9.05628C12.7768 10.1898 14.8167 10.1898 16.2728 9.05628L22.5378 4.17935H5.05578L11.3207 9.05628Z" fill="#FF9D56"/>
<path d="M51.1266 9.05628C52.5827 10.1898 54.6226 10.1898 56.0787 9.05628L62.3436 4.17935H44.8616L51.1266 9.05628Z" fill="#FF9D56"/>
<path d="M37.4043 9.05628C38.8604 10.1898 40.9003 10.1898 42.3565 9.05628L48.6214 4.17935H31.1394L37.4043 9.05628Z" fill="#FF9D56"/>
<path d="M77.2102 9.05628C78.6663 10.1898 80.7062 10.1898 82.1623 9.05628L88.4272 4.17935H70.9453L77.2102 9.05628Z" fill="#FF9D56"/>
<path d="M63.4879 9.05628C64.9441 10.1898 66.984 10.1898 68.4401 9.05628L74.705 4.17935H57.223L63.4879 9.05628Z" fill="#FF9D56"/>
<path d="M103.294 9.05628C104.75 10.1898 106.79 10.1898 108.246 9.05628L114.511 4.17935H97.0289L103.294 9.05628Z" fill="#FF9D56"/>
<path d="M89.5715 9.05628C91.0277 10.1898 93.0676 10.1898 94.5237 9.05628L100.789 4.17935H83.3066L89.5715 9.05628Z" fill="#FF9D56"/>
<path d="M129.377 9.05628C130.834 10.1898 132.873 10.1898 134.33 9.05628L140.594 4.17935H123.113L129.377 9.05628Z" fill="#FF9D56"/>
<path d="M115.655 9.05628C117.111 10.1898 119.151 10.1898 120.607 9.05628L126.872 4.17935H109.39L115.655 9.05628Z" fill="#FF9D56"/>
<path d="M155.461 9.05628C156.917 10.1898 158.957 10.1898 160.413 9.05628L166.678 4.17935H149.196L155.461 9.05628Z" fill="#FF9D56"/>
<path d="M141.739 9.05628C143.195 10.1898 145.235 10.1898 146.691 9.05628L152.956 4.17935H135.474L141.739 9.05628Z" fill="#FF9D56"/>
<path d="M167.822 9.05628C169.279 10.1898 171.318 10.1898 172.775 9.05628L179.039 4.17935H161.557L167.822 9.05628Z" fill="#FF9D56"/>
</svg>
